<svg xmlns="http://www.w3.org/2000/svg" viewBox="0 0 32 32" fill="none">
  <rect width="32" height="32" rx="7" fill="#0A0A0F"/>
  <rect x="1" y="1" width="30" height="30" rx="6" stroke="url(#g)" stroke-width="1.2"/>
  <path d="M7 21h18l-2-5.5a2 2 0 0 0-1.86-1.27H10.86A2 2 0 0 0 9 15.5L7 21Z" fill="url(#g)"/>
  <circle cx="11" cy="21" r="1.7" fill="#0A0A0F"/>
  <circle cx="21" cy="21" r="1.7" fill="#0A0A0F"/>
  <path d="M9.5 15.5L11 12.2a1 1 0 0 1 .94-.66h8.12a1 1 0 0 1 .94.66L22.5 15.5" stroke="#0A0A0F" stroke-width="1.1" stroke-linecap="round"/>
  <defs>
    <linearGradient id="g" x1="4" y1="4" x2="28" y2="28">
      <stop stop-color="#E52929"/>
      <stop offset="1" stop-color="#EA580C"/>
    </linearGradient>
  </defs>
</svg>
